<?xml version="1.0" encoding="UTF-8"?>
<!DOCTYPE svg PUBLIC "-//W3C//DTD SVG 1.1//EN" "http://www.w3.org/Graphics/SVG/1.1/DTD/svg11.dtd">
<svg version="1.1" xmlns="http://www.w3.org/2000/svg" xmlns:xlink="http://www.w3.org/1999/xlink" x="0" y="0" width="517.614" height="122.18" viewBox="0, 0, 517.614, 122.18">
  <g id="Layer_1" transform="translate(-864.496, -346.965)">
    <path d="M885.486,347.325 C875.054,349.279 867.561,356.403 865.177,366.628 C863.506,373.799 864.753,378.917 870.647,389.084 C871.607,390.741 872.81,392.864 873.32,393.802 C873.83,394.74 874.716,396.229 875.291,397.111 C875.864,397.994 876.335,398.844 876.335,399.002 C876.335,399.161 876.917,400.184 877.63,401.277 C878.907,403.231 879.553,404.34 881.434,407.802 C881.955,408.764 883.078,410.718 883.924,412.146 C884.773,413.573 885.873,415.507 886.368,416.447 C886.863,417.385 887.438,418.362 887.645,418.617 C887.851,418.874 888.903,420.688 889.982,422.65 C891.062,424.611 892.121,426.426 892.333,426.683 C892.547,426.938 893.118,427.917 893.602,428.855 C894.088,429.795 894.803,431.008 895.19,431.552 C895.577,432.095 896.104,433.001 896.36,433.565 C896.617,434.131 897.097,435.011 897.429,435.523 C898.147,436.634 899.171,438.41 900.933,441.607 C901.65,442.906 902.394,444.162 902.588,444.399 C902.779,444.635 903.377,445.666 903.915,446.69 C904.451,447.714 905.575,449.668 906.412,451.032 C907.25,452.396 908.151,453.978 908.415,454.548 C916.299,471.517 941.178,474.387 951.15,459.478 C953.017,456.688 955.122,453.384 955.122,453.247 C955.122,453.12 955.914,451.739 962.343,440.641 C963.874,437.997 965.339,435.413 965.598,434.902 C965.858,434.39 966.238,433.763 966.445,433.506 C966.651,433.251 967.314,432.134 967.917,431.025 C968.838,429.327 971.17,425.27 972.194,423.58 C972.348,423.323 973.684,421.021 975.162,418.462 C976.64,415.903 978.266,413.112 978.776,412.259 C979.288,411.405 980.189,409.801 980.777,408.691 C981.367,407.582 982.037,406.465 982.268,406.209 C982.497,405.954 982.832,405.395 983.012,404.969 C983.191,404.543 983.723,403.551 984.196,402.764 C984.669,401.976 985.878,399.883 986.885,398.111 C987.892,396.339 989.024,394.4 989.402,393.802 C989.779,393.205 990.436,392.088 990.861,391.322 C991.287,390.553 992.623,388.18 993.831,386.047 C999.05,376.838 999.524,369.762 995.519,360.922 C992.582,354.442 986.444,349.556 978.968,347.745 L975.75,346.965 L931.392,346.999 C905.273,347.019 886.398,347.153 885.486,347.325 M939.077,352.56 C950.374,354.65 956.596,367.306 951.93,378.712 C950.469,382.289 952.899,381.956 927.205,382.094 C900.838,382.234 901.469,382.17 896.031,385.221 C891.443,387.795 885.021,395.881 885.021,399.086 C885.021,399.894 884.265,401.563 883.949,401.459 C883.77,401.399 882.705,399.73 881.583,397.75 C880.461,395.77 879.171,393.586 878.715,392.898 C878.259,392.207 877.885,391.534 877.885,391.398 C877.885,391.262 877.258,390.14 876.489,388.908 C875.722,387.674 875.093,386.592 875.093,386.505 C875.093,386.417 874.768,385.826 874.368,385.189 C870.956,379.757 869.821,376.475 869.821,372.055 C869.821,362.295 876.089,354.602 885.795,352.446 C887.183,352.139 937.374,352.245 939.077,352.56 M978.92,353.025 C987.522,355.649 992.966,363.044 992.966,372.105 C992.966,376.051 992.057,378.798 988.979,384.162 C988.238,385.455 987.137,387.421 986.534,388.53 C985.931,389.637 985.177,390.916 984.859,391.368 C984.54,391.822 984.28,392.289 984.28,392.407 C984.28,392.524 984.021,392.991 983.707,393.445 C983.392,393.897 982.711,395.034 982.192,395.974 C981.674,396.912 980.515,398.935 979.614,400.471 C977.784,403.596 977.215,404.576 973.128,411.638 C971.55,414.368 970.005,417.035 969.698,417.567 C969.391,418.097 968.953,418.866 968.726,419.272 C965.924,424.304 963.506,426.928 960.009,428.737 C951.252,433.266 939.628,429.957 935.105,421.647 L934.284,420.139 L934.958,418.834 C935.991,416.832 936.685,415.6 937.491,414.34 C937.897,413.707 938.431,412.771 938.677,412.259 C938.924,411.747 939.358,410.979 939.641,410.552 C939.924,410.126 942.352,405.939 945.038,401.247 C947.724,396.555 950.16,392.367 950.454,391.941 C950.748,391.515 951.077,390.921 951.183,390.624 C951.291,390.326 951.872,389.311 952.475,388.37 C953.078,387.426 953.571,386.568 953.571,386.462 C953.571,386.354 954.044,385.554 954.621,384.685 C960.837,375.303 959.921,362.779 952.408,354.415 C950.337,352.111 949.682,352.238 963.714,352.238 L976.338,352.238 L978.92,353.025 M933.125,387.288 C944.104,387.288 946.747,387.367 946.747,387.692 C946.747,388.046 943.041,394.623 939.198,401.092 C938.487,402.285 937.795,403.54 937.659,403.877 C937.521,404.215 937.223,404.703 936.998,404.964 C936.771,405.222 936.101,406.341 935.507,407.45 C934.914,408.559 933.99,410.158 933.453,411.001 C932.917,411.844 932.474,412.682 932.468,412.862 C932.39,415.494 930.717,414.273 928.152,409.708 C926.927,407.528 925.679,405.326 925.375,404.815 C925.074,404.303 924.471,403.255 924.037,402.488 C923.602,401.72 922.742,400.262 922.124,399.248 C921.506,398.236 921.002,397.24 921.002,397.039 C921.002,396.836 920.784,396.49 920.52,396.27 C920.253,396.049 919.615,395.02 919.101,393.983 C918.586,392.944 917.979,391.887 917.754,391.63 C917.311,391.132 915.729,387.947 915.729,387.558 C915.729,387.311 918.372,387.024 919.088,387.192 C919.315,387.246 925.632,387.288 933.125,387.288 M909.814,388.189 C910.166,388.684 910.455,389.179 910.455,389.289 C910.455,389.397 911.013,390.346 911.696,391.396 C912.379,392.446 912.937,393.428 912.937,393.579 C912.937,393.73 913.403,394.575 913.972,395.455 C915.191,397.342 916.042,398.801 917.531,401.558 C918.13,402.665 919.018,404.158 919.502,404.87 C919.985,405.583 920.382,406.294 920.382,406.451 C920.382,406.607 920.953,407.617 921.651,408.697 C922.349,409.778 923.032,410.951 923.17,411.304 C923.308,411.658 923.784,412.479 924.227,413.125 C924.672,413.772 925.035,414.368 925.035,414.45 C925.035,414.532 925.413,415.189 925.874,415.909 C926.337,416.631 927.208,418.146 927.813,419.274 C930.237,423.802 931.469,425.7 933.441,427.937 C939.758,435.106 948.65,437.602 958.224,434.892 C959.624,434.496 959.51,435.292 957.733,438.348 C956.75,440.036 955.427,442.352 954.792,443.494 C954.156,444.637 953.342,445.984 952.983,446.489 C952.624,446.993 952.33,447.472 952.33,447.55 C952.33,447.818 948.956,453.656 947.941,455.143 C940.683,465.787 925.885,467.33 917.315,458.339 C915.828,456.779 909.835,447.336 909.835,446.552 C909.835,446.418 909.574,445.975 909.258,445.568 C908.94,445.162 908.229,443.956 907.674,442.888 C907.121,441.821 906.548,440.874 906.401,440.783 C906.254,440.691 905.705,439.72 905.182,438.624 C904.659,437.529 904.093,436.547 903.922,436.443 C903.753,436.336 903.053,435.181 902.368,433.87 C901.681,432.562 900.652,430.721 900.077,429.783 C899.504,428.845 898.584,427.241 898.035,426.218 C897.484,425.194 896.792,424.007 896.496,423.58 C896.198,423.154 895.573,422.037 895.106,421.099 C894.637,420.16 894.077,419.182 893.859,418.928 C889.381,413.655 888.069,404.24 890.933,397.945 C891.959,395.693 895.837,391.011 896.679,391.011 C896.878,391.011 897.224,390.791 897.445,390.523 C898.374,389.405 902.052,388.014 905.182,387.597 C908.601,387.141 909.115,387.208 909.814,388.189" fill="#FB766C" id="path2"/>
    <g>
      <path d="M1013.016,388.09 Q1013.016,383.992 1015.399,381.61 Q1017.781,379.227 1021.879,379.227 L1053.328,379.227 Q1053.995,380.276 1054.519,381.991 Q1055.043,383.706 1055.043,385.612 Q1055.043,389.234 1053.471,390.759 Q1051.898,392.283 1049.325,392.283 L1029.217,392.283 L1029.217,401.146 L1050.66,401.146 Q1051.327,402.194 1051.851,403.862 Q1052.375,405.53 1052.375,407.436 Q1052.375,411.057 1050.85,412.582 Q1049.325,414.107 1046.752,414.107 L1029.217,414.107 L1029.217,424.113 L1053.709,424.113 Q1054.376,425.162 1054.9,426.877 Q1055.424,428.592 1055.424,430.498 Q1055.424,434.12 1053.852,435.692 Q1052.28,437.264 1049.707,437.264 L1021.879,437.264 Q1017.781,437.264 1015.399,434.882 Q1013.016,432.5 1013.016,428.402 z" fill="#272727"/>
      <path d="M1099.834,435.073 Q1098.5,436.216 1095.688,437.074 Q1092.877,437.932 1089.542,437.932 Q1085.539,437.932 1082.68,436.74 Q1079.821,435.549 1078.773,433.453 Q1077.724,431.261 1076.2,427.782 Q1074.675,424.304 1073.007,420.015 Q1071.339,415.727 1069.576,410.914 Q1067.813,406.102 1066.193,401.146 Q1064.573,396.191 1063.144,391.426 Q1061.714,386.661 1060.666,382.468 Q1062,381.133 1064.526,380.037 Q1067.051,378.941 1069.91,378.941 Q1073.436,378.941 1075.676,380.419 Q1077.915,381.896 1078.963,385.898 Q1081.536,395.238 1084.157,403.767 Q1086.778,412.296 1089.637,421.54 L1090.209,421.54 Q1092.782,412.582 1095.498,402.004 Q1098.214,391.426 1100.692,380.943 Q1102.407,380.085 1104.36,379.513 Q1106.314,378.941 1108.792,378.941 Q1112.318,378.941 1114.796,380.514 Q1117.274,382.086 1117.274,385.708 Q1117.274,387.804 1116.273,391.807 Q1115.272,395.809 1113.7,400.813 Q1112.127,405.816 1110.174,411.248 Q1108.22,416.68 1106.266,421.492 Q1104.313,426.305 1102.598,429.974 Q1100.882,433.643 1099.834,435.073 z" fill="#272727"/>
      <path d="M1125.66,388.09 Q1125.66,383.992 1128.042,381.61 Q1130.425,379.227 1134.523,379.227 L1165.971,379.227 Q1166.638,380.276 1167.163,381.991 Q1167.687,383.706 1167.687,385.612 Q1167.687,389.234 1166.114,390.759 Q1164.542,392.283 1161.969,392.283 L1141.861,392.283 L1141.861,401.146 L1163.303,401.146 Q1163.97,402.194 1164.494,403.862 Q1165.018,405.53 1165.018,407.436 Q1165.018,411.057 1163.494,412.582 Q1161.969,414.107 1159.396,414.107 L1141.861,414.107 L1141.861,424.113 L1166.353,424.113 Q1167.02,425.162 1167.544,426.877 Q1168.068,428.592 1168.068,430.498 Q1168.068,434.12 1166.495,435.692 Q1164.923,437.264 1162.35,437.264 L1134.523,437.264 Q1130.425,437.264 1128.042,434.882 Q1125.66,432.5 1125.66,428.402 z" fill="#272727"/>
      <path d="M1230.203,434.977 Q1228.869,436.312 1226.343,437.026 Q1223.818,437.741 1220.292,437.741 Q1216.766,437.741 1213.621,436.693 Q1210.476,435.644 1208.475,431.642 L1199.04,412.391 Q1197.611,409.437 1196.467,406.816 Q1195.323,404.196 1193.989,400.765 L1193.417,400.86 Q1193.799,406.006 1193.846,411.343 Q1193.894,416.68 1193.894,421.826 L1193.894,436.597 Q1192.846,436.883 1190.702,437.169 Q1188.557,437.455 1186.461,437.455 Q1184.364,437.455 1182.744,437.169 Q1181.124,436.883 1180.076,436.026 Q1179.027,435.168 1178.456,433.691 Q1177.884,432.214 1177.884,429.831 L1177.884,382.182 Q1179.218,380.276 1181.982,379.323 Q1184.745,378.37 1187.89,378.37 Q1191.416,378.37 1194.609,379.466 Q1197.801,380.562 1199.707,384.469 L1209.237,403.719 Q1210.667,406.674 1211.81,409.294 Q1212.954,411.915 1214.288,415.346 L1214.765,415.25 Q1214.383,410.104 1214.288,404.958 Q1214.193,399.812 1214.193,394.666 L1214.193,379.227 Q1215.241,378.941 1217.385,378.656 Q1219.529,378.37 1221.626,378.37 Q1225.819,378.37 1228.011,379.847 Q1230.203,381.324 1230.203,385.994 z" fill="#272727"/>
      <path d="M1239.923,392.569 Q1239.256,391.521 1238.685,389.71 Q1238.113,387.9 1238.113,385.898 Q1238.113,382.182 1239.781,380.562 Q1241.448,378.941 1244.117,378.941 L1285.667,378.941 Q1286.334,379.99 1286.906,381.8 Q1287.478,383.611 1287.478,385.612 Q1287.478,389.329 1285.81,390.949 Q1284.142,392.569 1281.474,392.569 L1270.896,392.569 L1270.896,436.597 Q1269.847,436.883 1267.608,437.169 Q1265.368,437.455 1263.176,437.455 Q1260.985,437.455 1259.317,437.122 Q1257.649,436.788 1256.505,435.93 Q1255.362,435.073 1254.79,433.548 Q1254.218,432.023 1254.218,429.545 L1254.218,392.569 z" fill="#272727"/>
      <path d="M1312.255,436.597 Q1311.207,436.883 1308.968,437.169 Q1306.728,437.455 1304.536,437.455 Q1302.344,437.455 1300.677,437.122 Q1299.009,436.788 1297.865,435.93 Q1296.722,435.073 1296.15,433.548 Q1295.578,432.023 1295.578,429.545 L1295.578,379.227 Q1296.626,379.037 1298.913,378.703 Q1301.201,378.37 1303.297,378.37 Q1305.489,378.37 1307.157,378.703 Q1308.825,379.037 1309.968,379.894 Q1311.112,380.752 1311.684,382.277 Q1312.255,383.802 1312.255,386.28 z" fill="#272727"/>
      <path d="M1321.785,408.008 Q1321.785,400.574 1324.12,394.856 Q1326.455,389.138 1330.505,385.279 Q1334.555,381.419 1340.035,379.418 Q1345.515,377.417 1351.9,377.417 Q1358.285,377.417 1363.765,379.418 Q1369.244,381.419 1373.342,385.279 Q1377.44,389.138 1379.775,394.856 Q1382.11,400.574 1382.11,408.008 Q1382.11,415.441 1379.822,421.207 Q1377.535,426.972 1373.485,430.832 Q1369.435,434.691 1363.907,436.693 Q1358.38,438.694 1351.9,438.694 Q1345.419,438.694 1339.892,436.645 Q1334.365,434.596 1330.362,430.689 Q1326.36,426.782 1324.073,421.064 Q1321.785,415.346 1321.785,408.008 z M1338.939,408.008 Q1338.939,416.68 1342.465,420.968 Q1345.991,425.257 1351.9,425.257 Q1357.904,425.257 1361.43,420.968 Q1364.956,416.68 1364.956,408.008 Q1364.956,399.431 1361.477,395.142 Q1357.999,390.854 1351.995,390.854 Q1346.087,390.854 1342.513,395.095 Q1338.939,399.336 1338.939,408.008 z" fill="#272727"/>
    </g>
  </g>
</svg>
